<svg width="13" height="14" viewBox="0 0 13 14" fill="none" xmlns="http://www.w3.org/2000/svg">
<path fill-rule="evenodd" clip-rule="evenodd" d="M7.8395 9.71036C7.05351 10.2109 6.12554 10.5 5.13158 10.5C2.29749 10.5 0 8.1495 0 5.25C0 2.35051 2.29749 0 5.13158 0C7.96567 0 10.2632 2.35051 10.2632 5.25C10.2632 6.62599 9.74574 7.87834 8.89911 8.81452L12.7996 12.805C13.0668 13.0784 13.0668 13.5216 12.7996 13.795C12.5324 14.0683 12.0992 14.0683 11.832 13.795L7.8395 9.71036ZM8.89474 5.25C8.89474 7.3763 7.20991 9.1 5.13158 9.1C3.05324 9.1 1.36842 7.3763 1.36842 5.25C1.36842 3.1237 3.05324 1.4 5.13158 1.4C7.20991 1.4 8.89474 3.1237 8.89474 5.25Z" fill="#C2CFE0"/>
</svg>
