<svg width="18" height="17" viewBox="0 0 18 17" fill="none" xmlns="http://www.w3.org/2000/svg">
<path d="M4.27745 9.39542L2.14237 10.5444L2.32855 10.8636M4.27745 9.39542L8.70962 3.24623M4.27745 9.39542L6.00276 12.2679M6.00276 12.2679L13.5421 11.4593M6.00276 12.2679L5.7224 12.4299M4.06178 13.3898L3.86769 13.502L3.65668 13.1402M4.06178 13.3898C4.06178 13.3898 5.99344 16.3368 6.54193 16.417C7.12422 16.5021 7.87904 16.1191 7.72808 15.268C7.60698 14.5853 5.7224 12.4299 5.7224 12.4299M4.06178 13.3898L5.7224 12.4299M3.65668 13.1402C2.63028 13.7816 1.65542 13.8649 1.17188 13.0339C0.688687 12.2034 1.27165 11.2284 2.32855 10.8636M3.65668 13.1402L2.32855 10.8636" stroke="#C2CFE0" stroke-linejoin="round"/>
<path d="M7.85712 2.14285L14.1428 12.4286" stroke="#C2CFE0" stroke-linecap="round" stroke-linejoin="round"/>
<path d="M11.8571 4.42857C13.8073 4.93968 14.2596 5.72102 14.1428 7.85714M11.8571 1C15.6966 2.20515 16.9579 3.70481 17 8.42857" stroke="#C2CFE0" stroke-linecap="round" stroke-linejoin="round"/>
</svg>
