<svg width="14" height="13" viewBox="0 0 14 13" fill="none" xmlns="http://www.w3.org/2000/svg">
<path d="M6 12.5L7.25 11.5L8.5 10.5M6 12.5L8.5 10.5M6 12.5V10V7.5M6 12.5V7.5M6 7.5L1.6414 2.70554C1.28234 2.31057 1.29679 1.70321 1.67424 1.32576L1.70711 1.29289C1.89464 1.10536 2.149 1 2.41421 1H12.4698C12.7947 1 13.0918 1.18359 13.2371 1.47423V1.47423C13.3956 1.79112 13.3429 2.17281 13.1046 2.43496L8.76006 7.21393C8.59272 7.39801 8.5 7.63784 8.5 7.88661V10.5" stroke="#C2CFE0" stroke-linecap="round" stroke-linejoin="round"/>
</svg>
