<svg width="12" height="12" viewBox="0 0 12 12" fill="none" xmlns="http://www.w3.org/2000/svg">
<path fill-rule="evenodd" clip-rule="evenodd" d="M6 0C6.49232 0 6.92865 0.330112 7.08078 0.817685L7.97377 3.67958H10.8635C11.3558 3.67958 11.7922 4.00969 11.9443 4.49727C12.0964 4.98484 11.9298 5.51897 11.5315 5.82031L9.19362 7.58906L10.0866 10.451C10.2387 10.9385 10.0721 11.4727 9.67378 11.774C9.27549 12.0753 8.73616 12.0753 8.33786 11.774L6 10.0052L3.66214 11.774C3.26384 12.0753 2.72451 12.0753 2.32622 11.774C1.92792 11.4727 1.76126 10.9385 1.9134 10.451L2.80638 7.58906L0.468519 5.82031C0.0702246 5.51897 -0.096438 4.98484 0.055697 4.49727C0.207832 4.00969 0.64416 3.67958 1.13648 3.67958H4.02623L4.91922 0.817685C5.07135 0.330112 5.50768 0 6 0ZM4.85188 4.86295H1.13648L4.1423 7.13705L2.99418 10.8166L6 8.54253L9.00582 10.8166L7.8577 7.13705L10.8635 4.86295H7.14812L6 1.18336L4.85188 4.86295Z" fill="#C2CFE0"/>
</svg>
