<svg width="14" height="14" viewBox="0 0 14 14" fill="none" xmlns="http://www.w3.org/2000/svg">
<path fill-rule="evenodd" clip-rule="evenodd" d="M0.5 1.75884V0.5H13.5V1.75884H0.5ZM0 2.35884V1.75884V0.3C0 0.134315 0.134315 0 0.3 0H13.7C13.8657 0 14 0.134315 14 0.3V13.7C14 13.8657 13.8657 14 13.7 14H0.3C0.134315 14 0 13.8657 0 13.7V2.35884ZM0.5 2.35884H13.5V13.5H0.5V2.35884ZM0.98822 0.905884H1.39998V1.31765H0.98822V0.905884ZM2.14703 4.61765V6.08823H4.20586V4.61765H2.14703ZM1.94703 4.11765C1.78135 4.11765 1.64703 4.25196 1.64703 4.41765V6.28823C1.64703 6.45392 1.78135 6.58823 1.94703 6.58823H4.40586C4.57154 6.58823 4.70586 6.45392 4.70586 6.28823V4.41765C4.70586 4.25196 4.57154 4.11765 4.40586 4.11765H1.94703ZM2.14703 9.55882V11.0294H4.20586V9.55882H2.14703ZM1.94703 9.05882C1.78135 9.05882 1.64703 9.19314 1.64703 9.35882V11.2294C1.64703 11.3951 1.78135 11.5294 1.94703 11.5294H4.40586C4.57154 11.5294 4.70586 11.3951 4.70586 11.2294V9.35882C4.70586 9.19314 4.57154 9.05882 4.40586 9.05882H1.94703ZM5.97061 6.08823V4.61765H8.02943V6.08823H5.97061ZM5.47061 4.41765C5.47061 4.25196 5.60492 4.11765 5.77061 4.11765H8.22943C8.39512 4.11765 8.52943 4.25196 8.52943 4.41765V6.28823C8.52943 6.45392 8.39512 6.58823 8.22943 6.58823H5.77061C5.60492 6.58823 5.47061 6.45392 5.47061 6.28823V4.41765ZM5.97058 9.55882V11.0294H8.0294V9.55882H5.97058ZM5.77058 9.05882C5.6049 9.05882 5.47058 9.19314 5.47058 9.35882V11.2294C5.47058 11.3951 5.6049 11.5294 5.77058 11.5294H8.2294C8.39509 11.5294 8.5294 11.3951 8.5294 11.2294V9.35882C8.5294 9.19314 8.39509 9.05882 8.2294 9.05882H5.77058ZM9.79411 6.08823V4.61765H11.8529V6.08823H9.79411ZM9.29411 4.41765C9.29411 4.25196 9.42842 4.11765 9.59411 4.11765H12.0529C12.2186 4.11765 12.3529 4.25196 12.3529 4.41765V6.28823C12.3529 6.45392 12.2186 6.58823 12.0529 6.58823H9.59411C9.42842 6.58823 9.29411 6.45392 9.29411 6.28823V4.41765ZM9.79413 9.55882V11.0294H11.853V9.55882H9.79413ZM9.59413 9.05882C9.42844 9.05882 9.29413 9.19314 9.29413 9.35882V11.2294C9.29413 11.3951 9.42844 11.5294 9.59413 11.5294H12.053C12.2186 11.5294 12.353 11.3951 12.353 11.2294V9.35882C12.353 9.19314 12.2186 9.05882 12.053 9.05882H9.59413ZM2.0588 0.905884H1.64703V1.31765H2.0588V0.905884ZM2.30585 0.905884H2.71761V1.31765H2.30585V0.905884Z" fill="#C2CFE0"/>
</svg>
